#define bat_normal_width 22
#define bat_normal_height 22
static char bat_normal_bits[] = {
  0x00, 0x00, 0x00, 0x00, 0x00, 0x00, 0x00, 0x00, 0x00, 0x00, 0x00, 0x00, 
  0x00, 0x00, 0x00, 0x00, 0x00, 0x00, 0xF8, 0xFF, 0x1F, 0xF8, 0xFF, 0x1F, 
  0x18, 0x00, 0x18, 0xDE, 0x07, 0x18, 0xDE, 0x07, 0x18, 0xDE, 0x07, 0x18, 
  0xDE, 0x07, 0x18, 0x18, 0x00, 0x18, 0xF8, 0xFF, 0x1F, 0xF8, 0xFF, 0x1F, 
  0x00, 0x00, 0x00, 0x00, 0x00, 0x00, 0x00, 0x00, 0x00, 0x00, 0x00, 0x00, 
  0x00, 0x00, 0x00, 0x00, 0x00, 0x00, };
