#define bat_empty_width 22
#define bat_empty_height 22
static char bat_empty_bits[] = {
  0x00, 0x00, 0x00, 0x00, 0x00, 0x00, 0x00, 0x00, 0x00, 0x00, 0x00, 0x00, 
  0x00, 0x00, 0x00, 0x00, 0x00, 0x00, 0xF8, 0xFF, 0x1F, 0xF8, 0xFF, 0x1F, 
  0x18, 0x00, 0x18, 0x1E, 0x00, 0x18, 0x1E, 0x00, 0x18, 0x1E, 0x00, 0x18, 
  0x1E, 0x00, 0x18, 0x18, 0x00, 0x18, 0xF8, 0xFF, 0x1F, 0xF8, 0xFF, 0x1F, 
  0x00, 0x00, 0x00, 0x00, 0x00, 0x00, 0x00, 0x00, 0x00, 0x00, 0x00, 0x00, 
  0x00, 0x00, 0x00, 0x00, 0x00, 0x00, };
