#define bat_full_width 22
#define bat_full_height 22
static char bat_full_bits[] = {
  0x00, 0x00, 0x00, 0x00, 0x00, 0x00, 0x00, 0x00, 0x00, 0x00, 0x00, 0x00, 
  0x00, 0x00, 0x00, 0x00, 0x00, 0x00, 0xF8, 0xFF, 0x1F, 0xF8, 0xFF, 0x1F, 
  0x18, 0x00, 0x18, 0xDE, 0xF7, 0x1B, 0xDE, 0xC7, 0x1B, 0xDE, 0xE3, 0x1B, 
  0xDE, 0xEF, 0x1B, 0x18, 0x00, 0x18, 0xF8, 0xFF, 0x1F, 0xF8, 0xFF, 0x1F, 
  0x00, 0x00, 0x00, 0x00, 0x00, 0x00, 0x00, 0x00, 0x00, 0x00, 0x00, 0x00, 
  0x00, 0x00, 0x00, 0x00, 0x00, 0x00, };
