#define bat_low_width 22
#define bat_low_height 22
static char bat_low_bits[] = {
  0x00, 0x00, 0x00, 0x00, 0x00, 0x00, 0x00, 0x00, 0x00, 0x00, 0x00, 0x00, 
  0x00, 0x00, 0x00, 0x00, 0x00, 0x00, 0x00, 0x24, 0x00, 0x40, 0x00, 0x04, 
  0x00, 0x00, 0x00, 0xC2, 0x00, 0x00, 0xC0, 0x00, 0x00, 0xC4, 0x00, 0x10, 
  0xC0, 0x00, 0x00, 0x00, 0x00, 0x00, 0x98, 0x24, 0x0A, 0x00, 0x00, 0x00, 
  0x00, 0x00, 0x00, 0x00, 0x00, 0x00, 0x00, 0x00, 0x00, 0x00, 0x00, 0x00, 
  0x00, 0x00, 0x00, 0x00, 0x00, 0x00, };
