#define cpu_width 22
#define cpu_height 22
static char cpu_bits[] = {
  0x00, 0x00, 0x00, 0x00, 0x00, 0x00, 0x00, 0x00, 0x00, 0x00, 0x0C, 0x00, 
  0x00, 0x2D, 0x00, 0x00, 0x00, 0x00, 0xC0, 0xFF, 0x00, 0x40, 0x80, 0x00, 
  0x50, 0x80, 0x02, 0x40, 0x80, 0x00, 0x58, 0x8C, 0x06, 0x58, 0x84, 0x06, 
  0x40, 0x88, 0x00, 0x50, 0x80, 0x02, 0x40, 0x80, 0x00, 0xC0, 0xFF, 0x00, 
  0x00, 0x00, 0x00, 0x00, 0x2D, 0x00, 0x00, 0x0C, 0x00, 0x00, 0x00, 0x00, 
  0x00, 0x00, 0x00, 0x00, 0x00, 0x00, };
