#define online_width 22
#define online_height 22
static char online_bits[] = {
  0x00, 0x00, 0x00, 0x00, 0x00, 0x00, 0x00, 0x00, 0x00, 0x80, 0x7F, 0x00, 
  0xF0, 0xFF, 0x03, 0x7C, 0xC0, 0x0F, 0x1E, 0x00, 0x1E, 0x86, 0x7F, 0x18, 
  0xE0, 0xFF, 0x01, 0xF0, 0xE1, 0x03, 0x30, 0x00, 0x03, 0x00, 0x3F, 0x00, 
  0xC0, 0xFF, 0x00, 0xC0, 0xE1, 0x00, 0x00, 0x00, 0x00, 0x00, 0x1E, 0x00, 
  0x00, 0x1E, 0x00, 0x00, 0x1C, 0x00, 0x00, 0x04, 0x00, 0x00, 0x00, 0x00, 
  0x00, 0x00, 0x00, 0x00, 0x00, 0x00, };
